<svg width="16" height="18" viewBox="0 0 16 18" fill="none" xmlns="http://www.w3.org/2000/svg">
<path d="M0 13.7346V4.26558L8 0L16 4.26558V13.7346L8 18L0 13.7346Z" fill="#FCAA00"/>
<path d="M0 13.7346V4.26558L8 0L16 4.26558V13.7346L8 18L0 13.7346Z" fill="#FCAA00"/>
<path d="M0.641602 4.61833V13.3811L8 17.3046L15.3586 13.3811V4.61833L8 0.694824L0.641602 4.61833Z" fill="white"/>
<path d="M0.641602 8.34717V13.3815L8 17.305L15.3586 13.3815V8.34717H0.641602Z" fill="#FCAA00"/>
<path d="M0.681864 10.6537C0.689646 11.0915 0.69626 11.5294 0.700929 11.9674C0.701902 12.0768 0.70482 12.1862 0.703458 12.2963L0.696649 12.6248C0.69451 12.734 0.693926 12.8431 0.699956 12.9512C0.706765 13.0588 0.717465 13.1679 0.74937 13.268C0.781859 13.368 0.84314 13.4564 0.929712 13.5229C1.01551 13.5903 1.11978 13.6401 1.22386 13.6925C1.43261 13.7991 1.63746 13.9076 1.84445 14.015L3.08253 14.662C3.90875 15.0921 4.72933 15.531 5.55205 15.9665L6.78526 16.6216L7.40177 16.9493C7.50468 17.0032 7.6074 17.0612 7.70818 17.1099C7.75876 17.134 7.80992 17.1559 7.86031 17.171C7.8854 17.1785 7.91031 17.1843 7.93385 17.187C7.94046 17.1879 7.96283 17.1895 7.97295 17.1897C7.98462 17.1902 7.99766 17.19 8.01088 17.1897C8.06322 17.1879 8.11652 17.1798 8.16827 17.1663C8.22177 17.1527 8.26632 17.134 8.32196 17.109C8.42487 17.0628 8.52798 17.0102 8.62914 16.9556C8.83069 16.8458 9.03496 16.7276 9.24137 16.6205L10.4748 15.9656C11.2979 15.5305 12.1185 15.0916 12.9449 14.6616L14.1828 14.0143L14.4923 13.8524L14.6469 13.7716C14.6991 13.7443 14.7539 13.7189 14.8067 13.6949C14.9123 13.6458 15.0189 13.6005 15.1022 13.5315C15.1843 13.4643 15.2387 13.3704 15.2687 13.269C15.2996 13.1675 15.3105 13.0596 15.3169 12.9514C15.323 12.8431 15.3236 12.7338 15.3249 12.6242L15.3331 11.9674C15.338 11.5295 15.3444 11.0915 15.3524 10.6537C15.3603 11.0915 15.3668 11.5294 15.3716 11.9674L15.3798 12.6242C15.3811 12.7337 15.3833 12.8434 15.3798 12.9537C15.3759 13.0641 15.3677 13.1758 15.3374 13.2861C15.3078 13.3963 15.2481 13.5044 15.1531 13.5845C15.0598 13.6634 14.9479 13.7119 14.8436 13.7622C14.7905 13.7874 14.7395 13.8116 14.689 13.8389L14.5355 13.9218L14.2285 14.0876L13.0007 14.7509C12.1832 15.1949 11.3605 15.6306 10.5411 16.0711L9.31121 16.7312C9.1048 16.8393 8.90773 16.955 8.70151 17.0684C8.59821 17.1248 8.49413 17.1787 8.38402 17.2287C8.33344 17.2518 8.26982 17.2791 8.20854 17.2944C8.14648 17.3108 8.08189 17.3214 8.01594 17.3233C7.9996 17.3235 7.98307 17.3239 7.96497 17.323C7.94552 17.3219 7.93832 17.3217 7.91556 17.3192C7.88035 17.3149 7.84747 17.3068 7.81615 17.2975C7.75389 17.2784 7.69709 17.2535 7.64262 17.2272C7.53348 17.1739 7.43426 17.1169 7.33115 17.0625L6.71639 16.7321L5.48669 16.0718C4.66727 15.6311 3.84513 15.1947 3.02747 14.7507L1.79932 14.0878C1.59466 13.978 1.38981 13.8657 1.18515 13.7581C1.08243 13.7044 0.974652 13.6521 0.880298 13.5761C0.785167 13.5014 0.714158 13.3971 0.682059 13.2863C0.64957 13.1751 0.642372 13.0639 0.637897 12.9534C0.634395 12.8427 0.637898 12.7328 0.642567 12.6232L0.657546 12.2951C0.661632 12.1862 0.661437 12.0766 0.663188 11.967C0.668052 11.5292 0.674471 11.0912 0.682253 10.6533L0.681864 10.6537Z" fill="white"/>
<path d="M2.34979 7.21582H1.56079V5.21482H2.34979C2.97679 5.21482 3.41179 5.61382 3.41179 6.21682C3.41179 6.81982 2.97679 7.21582 2.34979 7.21582ZM1.98679 5.58982V6.84082H2.34979C2.74579 6.84082 2.97679 6.55582 2.97679 6.21682C2.97679 5.86282 2.76079 5.58982 2.34979 5.58982H1.98679ZM4.08611 7.21582H3.70511V5.76682H4.08611V5.96482C4.18811 5.83582 4.36811 5.73382 4.54811 5.73382V6.10582C4.52111 6.09982 4.48511 6.09682 4.44311 6.09682C4.31711 6.09682 4.14911 6.16582 4.08611 6.25882V7.21582ZM4.73517 7.78282L4.79217 7.44082C4.82517 7.45582 4.87617 7.46482 4.91217 7.46482C5.01117 7.46482 5.07717 7.43782 5.11317 7.35982L5.16717 7.23682L4.57917 5.76682H4.98717L5.36517 6.77482L5.74317 5.76682H6.15417L5.47317 7.45282C5.36517 7.72582 5.17317 7.79782 4.92417 7.80382C4.87917 7.80382 4.78317 7.79482 4.73517 7.78282ZM7.52683 7.21582H7.10083V5.21482H8.51683V5.58082H7.52683V6.01582H8.49583V6.38182H7.52683V7.21582ZM9.1867 7.21582H8.8057V5.76682H9.1867V5.96482C9.2887 5.83582 9.4687 5.73382 9.6487 5.73382V6.10582C9.6217 6.09982 9.5857 6.09682 9.5437 6.09682C9.4177 6.09682 9.2497 6.16582 9.1867 6.25882V7.21582ZM11.2458 7.21582H10.8648V7.03282C10.7658 7.14382 10.5918 7.25182 10.3548 7.25182C10.0368 7.25182 9.88675 7.07782 9.88675 6.79582V5.76682H10.2678V6.64582C10.2678 6.84682 10.3728 6.91282 10.5348 6.91282C10.6818 6.91282 10.7988 6.83182 10.8648 6.74782V5.76682H11.2458V7.21582ZM11.8131 5.55382C11.6901 5.55382 11.5851 5.45182 11.5851 5.32582C11.5851 5.19982 11.6901 5.09782 11.8131 5.09782C11.9391 5.09782 12.0411 5.19982 12.0411 5.32582C12.0411 5.45182 11.9391 5.55382 11.8131 5.55382ZM12.0051 7.21582H11.6241V5.76682H12.0051V7.21582ZM12.8688 7.25182C12.6018 7.25182 12.4578 7.11382 12.4578 6.85582V6.09982H12.2178V5.76682H12.4578V5.37082H12.8418V5.76682H13.1358V6.09982H12.8418V6.75382C12.8418 6.84382 12.8898 6.91282 12.9738 6.91282C13.0308 6.91282 13.0848 6.89182 13.1058 6.87082L13.1868 7.15882C13.1298 7.20982 13.0278 7.25182 12.8688 7.25182ZM13.2705 7.02682L13.4355 6.75982C13.5405 6.85882 13.7565 6.95782 13.9365 6.95782C14.1015 6.95782 14.1795 6.90082 14.1795 6.81082C14.1795 6.70882 14.0535 6.67282 13.8885 6.63982C13.6395 6.59182 13.3185 6.53182 13.3185 6.18682C13.3185 5.94382 13.5315 5.73082 13.9125 5.73082C14.1585 5.73082 14.3535 5.81482 14.4945 5.92882L14.3445 6.18982C14.2575 6.09682 14.0925 6.02182 13.9155 6.02182C13.7775 6.02182 13.6875 6.07282 13.6875 6.15682C13.6875 6.24682 13.8015 6.27982 13.9635 6.31282C14.2125 6.36082 14.5455 6.42682 14.5455 6.78682C14.5455 7.05382 14.3205 7.25182 13.9185 7.25182C13.6665 7.25182 13.4235 7.16782 13.2705 7.02682Z" fill="#D87C39"/>
<path d="M2.34979 7H1.56079V4.999H2.34979C2.97679 4.999 3.41179 5.398 3.41179 6.001C3.41179 6.604 2.97679 7 2.34979 7ZM1.98679 5.374V6.625H2.34979C2.74579 6.625 2.97679 6.34 2.97679 6.001C2.97679 5.647 2.76079 5.374 2.34979 5.374H1.98679ZM4.08611 7H3.70511V5.551H4.08611V5.749C4.18811 5.62 4.36811 5.518 4.54811 5.518V5.89C4.52111 5.884 4.48511 5.881 4.44311 5.881C4.31711 5.881 4.14911 5.95 4.08611 6.043V7ZM4.73517 7.567L4.79217 7.225C4.82517 7.24 4.87617 7.249 4.91217 7.249C5.01117 7.249 5.07717 7.222 5.11317 7.144L5.16717 7.021L4.57917 5.551H4.98717L5.36517 6.559L5.74317 5.551H6.15417L5.47317 7.237C5.36517 7.51 5.17317 7.582 4.92417 7.588C4.87917 7.588 4.78317 7.579 4.73517 7.567ZM7.52683 7H7.10083V4.999H8.51683V5.365H7.52683V5.8H8.49583V6.166H7.52683V7ZM9.1867 7H8.8057V5.551H9.1867V5.749C9.2887 5.62 9.4687 5.518 9.6487 5.518V5.89C9.6217 5.884 9.5857 5.881 9.5437 5.881C9.4177 5.881 9.2497 5.95 9.1867 6.043V7ZM11.2458 7H10.8648V6.817C10.7658 6.928 10.5918 7.036 10.3548 7.036C10.0368 7.036 9.88675 6.862 9.88675 6.58V5.551H10.2678V6.43C10.2678 6.631 10.3728 6.697 10.5348 6.697C10.6818 6.697 10.7988 6.616 10.8648 6.532V5.551H11.2458V7ZM11.8131 5.338C11.6901 5.338 11.5851 5.236 11.5851 5.11C11.5851 4.984 11.6901 4.882 11.8131 4.882C11.9391 4.882 12.0411 4.984 12.0411 5.11C12.0411 5.236 11.9391 5.338 11.8131 5.338ZM12.0051 7H11.6241V5.551H12.0051V7ZM12.8688 7.036C12.6018 7.036 12.4578 6.898 12.4578 6.64V5.884H12.2178V5.551H12.4578V5.155H12.8418V5.551H13.1358V5.884H12.8418V6.538C12.8418 6.628 12.8898 6.697 12.9738 6.697C13.0308 6.697 13.0848 6.676 13.1058 6.655L13.1868 6.943C13.1298 6.994 13.0278 7.036 12.8688 7.036ZM13.2705 6.811L13.4355 6.544C13.5405 6.643 13.7565 6.742 13.9365 6.742C14.1015 6.742 14.1795 6.685 14.1795 6.595C14.1795 6.493 14.0535 6.457 13.8885 6.424C13.6395 6.376 13.3185 6.316 13.3185 5.971C13.3185 5.728 13.5315 5.515 13.9125 5.515C14.1585 5.515 14.3535 5.599 14.4945 5.713L14.3445 5.974C14.2575 5.881 14.0925 5.806 13.9155 5.806C13.7775 5.806 13.6875 5.857 13.6875 5.941C13.6875 6.031 13.8015 6.064 13.9635 6.097C14.2125 6.145 14.5455 6.211 14.5455 6.571C14.5455 6.838 14.3205 7.036 13.9185 7.036C13.6665 7.036 13.4235 6.952 13.2705 6.811Z" fill="#FCAA00"/>
<path d="M3.30064 10.3825C3.30064 9.84822 3.69136 9.46547 4.22562 9.46547C4.76253 9.46547 5.15325 9.84822 5.15325 10.3825C5.15325 10.9167 4.76253 11.2995 4.22562 11.2995C3.69136 11.2995 3.30064 10.9167 3.30064 10.3825ZM4.76519 10.3825C4.76519 10.0502 4.55255 9.80037 4.22562 9.80037C3.89869 9.80037 3.68871 10.0502 3.68871 10.3825C3.68871 10.7121 3.89869 10.9646 4.22562 10.9646C4.55255 10.9646 4.76519 10.7121 4.76519 10.3825ZM7.00573 11.2676H6.64158L5.79635 10.0768V11.2676H5.41891V9.49471H5.80698L6.62829 10.643V9.49471H7.00573V11.2676ZM8.48307 11.2676H7.35609V9.49471H7.73352V10.9353H8.48307V11.2676ZM9.12561 11.2676H8.74817V9.49471H9.12561V11.2676ZM11.0652 11.2676H10.701L9.85579 10.0768V11.2676H9.47836V9.49471H9.86642L10.6877 10.643V9.49471H11.0652V11.2676ZM12.6701 11.2676H11.4155V9.49471H12.6701V9.81898H11.793V10.2044H12.6515V10.5287H11.793V10.9406H12.6701V11.2676ZM6.5801 14.2676H6.20001V12.9917L5.70031 14.2676H5.53551L5.03581 12.9917V14.2676H4.65838V12.4947H5.18732L5.61791 13.6004L6.0485 12.4947H6.5801V14.2676ZM8.18756 14.2676H6.93299V12.4947H8.18756V12.819H7.31043V13.2044H8.16895V13.5287H7.31043V13.9406H8.18756V14.2676ZM9.6104 14.2676H8.48341V12.4947H8.86085V13.9353H9.6104V14.2676ZM11.5288 14.2676H11.1168L11.0051 13.9619H10.2131L10.1014 14.2676H9.68678L10.3725 12.4947H10.8457L11.5288 14.2676ZM10.9015 13.635L10.6091 12.8216L10.3141 13.635H10.9015Z" fill="black" fill-opacity="0.21"/>
<path d="M3.1736 10.1149C3.1736 9.58064 3.56433 9.19789 4.09858 9.19789C4.63549 9.19789 5.02621 9.58064 5.02621 10.1149C5.02621 10.6491 4.63549 11.0319 4.09858 11.0319C3.56433 11.0319 3.1736 10.6491 3.1736 10.1149ZM4.63815 10.1149C4.63815 9.78265 4.42551 9.5328 4.09858 9.5328C3.77165 9.5328 3.56167 9.78265 3.56167 10.1149C3.56167 10.4445 3.77165 10.697 4.09858 10.697C4.42551 10.697 4.63815 10.4445 4.63815 10.1149ZM6.87869 11H6.51455L5.66931 9.80923V11H5.29188V9.22713H5.67994L6.50126 10.3754V9.22713H6.87869V11ZM8.35604 11H7.22905V9.22713H7.60649V10.6678H8.35604V11ZM8.99857 11H8.62114V9.22713H8.99857V11ZM10.9381 11H10.574L9.72875 9.80923V11H9.35132V9.22713H9.73939L10.5607 10.3754V9.22713H10.9381V11ZM12.5431 11H11.2885V9.22713H12.5431V9.5514H11.6659V9.93681H12.5245V10.2611H11.6659V10.6731H12.5431V11ZM6.45306 14H6.07297V12.7242L5.57327 14H5.40847L4.90877 12.7242V14H4.53134V12.2271H5.06028L5.49087 13.3328L5.92146 12.2271H6.45306V14ZM8.06052 14H6.80596V12.2271H8.06052V12.5514H7.18339V12.9368H8.04192V13.2611H7.18339V13.6731H8.06052V14ZM9.48336 14H8.35638V12.2271H8.73381V13.6678H9.48336V14ZM11.4017 14H10.9897L10.8781 13.6943H10.086L9.97439 14H9.55974L10.2455 12.2271H10.7186L11.4017 14ZM10.7744 13.3674L10.4821 12.5541L10.187 13.3674H10.7744Z" fill="white"/>
</svg>
