<svg width="43" height="42" viewBox="0 0 43 42" fill="none" xmlns="http://www.w3.org/2000/svg">
<path d="M42.4236 15.66C42.1386 15.1454 41.7636 14.7264 41.3297 14.4378C40.8958 14.1491 40.4153 13.9991 39.9281 14H36.8567V10C36.8567 8.93913 36.5331 7.92172 35.9571 7.17157C35.3811 6.42143 34.5999 6 33.7853 6H20.4766L15.1535 0.8C14.6209 0.282956 13.9749 0.00250005 13.3106 0H3.07139C2.25681 0 1.47559 0.421427 0.899589 1.17157C0.323592 1.92172 0 2.93913 0 4V40C0 40.5304 0.161796 41.0391 0.449795 41.4142C0.737794 41.7893 1.1284 42 1.5357 42H35.9161C36.2384 42 36.5526 41.868 36.8141 41.6225C37.0756 41.3771 37.2711 41.0307 37.3731 40.6325L42.8421 19.265C42.9959 18.6638 43.0381 18.0236 42.9654 17.397C42.8926 16.7704 42.707 16.1752 42.4236 15.66ZM13.3106 4L19.0426 9.6C19.3084 9.85964 19.6318 10 19.964 10H33.7853V14H8.7861C8.14144 13.9999 7.51311 14.264 6.99012 14.7549C6.46713 15.2458 6.07599 15.9385 5.87212 16.735L3.07139 27.675V4H13.3106ZM34.8104 38H3.66647L8.7861 18H39.9281L34.8104 38Z" fill="white"/>
</svg>
