<svg width="128" height="128" viewBox="0 0 128 128" fill="none" xmlns="http://www.w3.org/2000/svg">
<g clip-path="url(#clip0_9121_13)">
<path d="M120 112H8.00005C3.58159 112 0 108.418 0 104C0 99.5819 3.58159 96 8.00005 96H120C124.418 96 128 99.5819 128 104C128 108.418 124.418 112 120 112Z" fill="#22437C"/>
<path d="M120 71.9999H8.00005C3.58159 71.9999 0 68.4184 0 64.0002C0 59.582 3.58159 56.0001 8.00005 56.0001H120C124.418 56.0001 128 59.5817 128 64.0002C128 68.4186 124.418 71.9999 120 71.9999Z" fill="#22437C"/>
<path d="M120 32H8.00005C3.58159 32 0 28.4184 0 23.9999C0 19.5815 3.58159 15.9999 8.00005 15.9999H120C124.418 15.9999 128 19.5815 128 23.9999C128 28.4184 124.418 32 120 32Z" fill="#22437C"/>
</g>
<defs>
<clipPath id="clip0_9121_13">
<rect width="128" height="128" fill="white"/>
</clipPath>
</defs>
</svg>
