<svg width="43" height="42" viewBox="0 0 43 42" fill="none" xmlns="http://www.w3.org/2000/svg">
<path d="M23.9808 31.5C23.9808 31.9792 23.8353 32.4477 23.5627 32.8462C23.2901 33.2447 22.9027 33.5552 22.4494 33.7386C21.9961 33.922 21.4973 33.97 21.016 33.8765C20.5348 33.783 20.0928 33.5522 19.7458 33.2134C19.3989 32.8745 19.1626 32.4427 19.0669 31.9727C18.9712 31.5027 19.0203 31.0155 19.2081 30.5727C19.3958 30.13 19.7138 29.7515 20.1218 29.4853C20.5297 29.219 21.0094 29.0769 21.5 29.0769C22.1579 29.0769 22.7889 29.3322 23.2542 29.7866C23.7194 30.241 23.9808 30.8574 23.9808 31.5ZM21.5 9.69231C16.9395 9.69231 13.2308 12.9534 13.2308 16.9615V17.7692C13.2308 18.1977 13.405 18.6085 13.7152 18.9115C14.0253 19.2144 14.446 19.3846 14.8846 19.3846C15.3232 19.3846 15.7439 19.2144 16.0541 18.9115C16.3642 18.6085 16.5385 18.1977 16.5385 17.7692V16.9615C16.5385 14.7404 18.765 12.9231 21.5 12.9231C24.2351 12.9231 26.4615 14.7404 26.4615 16.9615C26.4615 19.1827 24.2351 21 21.5 21C21.0614 21 20.6407 21.1702 20.3306 21.4731C20.0204 21.7761 19.8462 22.187 19.8462 22.6154V24.2308C19.8462 24.6592 20.0204 25.0701 20.3306 25.373C20.6407 25.676 21.0614 25.8461 21.5 25.8461C21.9386 25.8461 22.3593 25.676 22.6695 25.373C22.9796 25.0701 23.1539 24.6592 23.1539 24.2308V24.0854C26.9246 23.4089 29.7692 20.471 29.7692 16.9615C29.7692 12.9534 26.0605 9.69231 21.5 9.69231ZM43 21C43 25.1534 41.739 29.2135 39.3766 32.667C37.0141 36.1204 33.6563 38.812 29.7277 40.4015C25.7991 41.9909 21.4762 42.4068 17.3056 41.5965C13.135 40.7862 9.30404 38.7861 6.29721 35.8492C3.29038 32.9123 1.24271 29.1705 0.413126 25.0969C-0.416456 21.0233 0.00931561 16.8009 1.6366 12.9636C3.26388 9.1264 6.01959 5.84665 9.55525 3.53914C13.0909 1.23163 17.2477 0 21.5 0C27.2003 0.00587963 32.6654 2.22026 36.6961 6.15725C40.7269 10.0942 42.994 15.4323 43 21ZM39.6923 21C39.6923 17.4856 38.6253 14.0501 36.6264 11.1279C34.6274 8.20581 31.7861 5.92828 28.4619 4.58337C25.1377 3.23846 21.4798 2.88657 17.9509 3.5722C14.4219 4.25783 11.1803 5.95018 8.6361 8.43525C6.09186 10.9203 4.35922 14.0865 3.65726 17.5334C2.95531 20.9803 3.31558 24.5531 4.69251 27.8C6.06944 31.0469 8.40119 33.8221 11.3929 35.7746C14.3846 37.7271 17.9019 38.7692 21.5 38.7692C26.3232 38.7639 30.9473 36.8901 34.3579 33.5588C37.7684 30.2276 39.6868 25.711 39.6923 21Z" fill="white"/>
</svg>
