<svg width="40" height="40" viewBox="0 0 40 40" fill="none" xmlns="http://www.w3.org/2000/svg">
<path d="M28.4844 22.7344C28.4844 27.4202 24.6858 31.2188 20 31.2188C15.3142 31.2188 11.5156 27.4202 11.5156 22.7344C11.5156 18.0486 15.3142 14.25 20 14.25C24.6858 14.25 28.4844 18.0486 28.4844 22.7344Z" stroke="white"/>
<path d="M38.4375 10.2641V9.0625C38.4375 7.33938 37.0356 5.9375 35.3125 5.9375H12.7142L11.6088 4.64781C11.4604 4.47469 11.2437 4.375 11.0156 4.375H3.125C1.40188 4.375 0 5.77688 0 7.5V32.5C0 34.2231 1.40188 35.625 3.125 35.625H36.875C38.5981 35.625 40 34.2231 40 32.5V12.9688C40 11.8146 39.3706 10.8054 38.4375 10.2641ZM14.0535 7.5H35.3125C36.1741 7.5 36.875 8.20094 36.875 9.0625V9.84375H16.0624L14.0535 7.5ZM38.4375 32.5C38.4375 33.3616 37.7366 34.0625 36.875 34.0625H3.125C2.26344 34.0625 1.5625 33.3616 1.5625 32.5V7.5C1.5625 6.63844 2.26344 5.9375 3.125 5.9375H10.6563L11.7617 7.22711L15.1099 11.1334C15.2584 11.3065 15.475 11.4062 15.7031 11.4062H36.875C37.7366 11.4062 38.4375 12.1071 38.4375 12.9687V32.5Z" fill="white"/>
<path d="M17.0847 27V18.2727H22.9654V19.794H18.9299V21.8736H22.6628V23.3949H18.9299V25.4787H22.9824V27H17.0847Z" fill="white"/>
</svg>
