<svg width="42" height="42" viewBox="0 0 42 42" fill="none" xmlns="http://www.w3.org/2000/svg">
<g clip-path="url(#clip0_7424_142)">
<path d="M21.0002 29.4C20.5365 29.4 20.1602 29.7764 20.1602 30.24C20.1602 30.7037 20.5365 31.08 21.0002 31.08C21.4638 31.08 21.8402 30.7037 21.8402 30.24C21.8402 29.7764 21.4638 29.4 21.0002 29.4Z" fill="white"/>
<path d="M20.9998 31.92C21.9277 31.92 22.6798 31.1678 22.6798 30.24C22.6798 29.3122 21.9277 28.56 20.9998 28.56C20.072 28.56 19.3198 29.3122 19.3198 30.24C19.3198 31.1678 20.072 31.92 20.9998 31.92Z" fill="white"/>
<path d="M21 0C9.41973 0 0 9.41973 0 21C0 32.5803 9.41973 42 21 42C32.5803 42 42 32.5803 42 21C42 9.41973 32.5803 0 21 0ZM21 40.32C10.3471 40.32 1.68 31.6529 1.68 21C1.68 10.3471 10.3471 1.68 21 1.68C31.6529 1.68 40.32 10.3471 40.32 21C40.32 31.6529 31.6529 40.32 21 40.32Z" fill="white"/>
<path d="M26.7843 14.8999C26.3693 12.5328 24.4256 10.589 22.0585 10.1724C20.3129 9.86662 18.5523 10.3336 17.2201 11.4542C15.8862 12.5764 15.1201 14.2178 15.1201 15.9599C15.1201 16.4235 15.4965 16.7999 15.9601 16.7999C16.4238 16.7999 16.8001 16.4235 16.8001 15.9599C16.8001 14.715 17.3478 13.5424 18.302 12.7427C19.2697 11.9313 20.5028 11.6054 21.7696 11.8288C23.4529 12.1245 24.8356 13.5088 25.1329 15.1922C25.4521 17.0133 24.6256 18.7605 23.0246 19.6408C21.2303 20.6304 20.1602 22.3389 20.1602 24.3599V26.0399C20.1602 26.5035 20.5366 26.8799 21.0002 26.8799C21.4638 26.8799 21.8402 26.5035 21.8368 26.0399V24.2121C21.8368 22.9588 22.5845 21.7996 23.8327 21.1108C26.0383 19.8979 27.2244 17.4014 26.7843 14.8999Z" fill="white"/>
</g>
<defs>
<clipPath id="clip0_7424_142">
<rect width="42" height="42" fill="white"/>
</clipPath>
</defs>
</svg>
