<svg width="42" height="42" viewBox="0 0 42 42" fill="none" xmlns="http://www.w3.org/2000/svg">
<path d="M13.125 33.25C13.2399 33.2499 13.3537 33.2725 13.4599 33.3165C13.5661 33.3604 13.6626 33.4249 13.7439 33.5061C13.8251 33.5874 13.8896 33.6839 13.9335 33.7901C13.9775 33.8963 14.0001 34.0101 14 34.125V38.5C14.0005 38.964 14.185 39.4088 14.5131 39.7369C14.8412 40.065 15.286 40.2495 15.75 40.25H36.75C37.214 40.2495 37.6588 40.065 37.9869 39.7369C38.315 39.4088 38.4995 38.964 38.5 38.5V3.5C38.4995 3.03601 38.315 2.59116 37.9869 2.26307C37.6588 1.93499 37.214 1.75046 36.75 1.75H15.75C15.286 1.75046 14.8412 1.93499 14.5131 2.26307C14.185 2.59116 14.0005 3.03601 14 3.5V7.875C14 8.10706 13.9078 8.32962 13.7437 8.49372C13.5796 8.65781 13.3571 8.75 13.125 8.75C12.8929 8.75 12.6704 8.65781 12.5063 8.49372C12.3422 8.32962 12.25 8.10706 12.25 7.875V3.5C12.2511 2.57207 12.6202 1.68245 13.2763 1.0263C13.9324 0.37015 14.8221 0.00106066 15.75 0L36.75 0C37.6779 0.00106066 38.5676 0.37015 39.2237 1.0263C39.8798 1.68245 40.2489 2.57207 40.25 3.5V38.5C40.2489 39.4279 39.8798 40.3176 39.2237 40.9737C38.5676 41.6298 37.6779 41.9989 36.75 42H15.75C14.8221 41.9989 13.9324 41.6298 13.2763 40.9737C12.6202 40.3176 12.2511 39.4279 12.25 38.5V34.125C12.2499 34.0101 12.2725 33.8963 12.3165 33.7901C12.3604 33.6839 12.4249 33.5874 12.5061 33.5061C12.5874 33.4249 12.6839 33.3604 12.7901 33.3165C12.8963 33.2725 13.0101 33.2499 13.125 33.25Z" fill="white"/>
<path d="M25.9937 20.3814L18.9937 13.3814C18.8286 13.222 18.6076 13.1338 18.3782 13.1358C18.1488 13.1378 17.9293 13.2298 17.7671 13.392C17.6048 13.5543 17.5128 13.7737 17.5108 14.0031C17.5088 14.2326 17.597 14.4536 17.7564 14.6186L23.2627 20.125H2.625C2.39294 20.125 2.17038 20.2172 2.00628 20.3813C1.84219 20.5454 1.75 20.768 1.75 21C1.75 21.2321 1.84219 21.4546 2.00628 21.6187C2.17038 21.7828 2.39294 21.875 2.625 21.875H23.2627L17.7564 27.3814C17.6728 27.4621 17.6062 27.5586 17.5603 27.6654C17.5144 27.7721 17.4903 27.887 17.4893 28.0031C17.4883 28.1193 17.5104 28.2345 17.5544 28.3421C17.5984 28.4496 17.6634 28.5473 17.7455 28.6295C17.8277 28.7116 17.9254 28.7766 18.0329 28.8206C18.1405 28.8646 18.2557 28.8867 18.3719 28.8857C18.4881 28.8847 18.6029 28.8606 18.7096 28.8147C18.8164 28.7688 18.9129 28.7022 18.9936 28.6186L25.9936 21.6186C26.0749 21.5374 26.1394 21.4409 26.1833 21.3348C26.2273 21.2287 26.25 21.1149 26.25 21C26.25 20.8851 26.2273 20.7713 26.1834 20.6652C26.1394 20.559 26.0749 20.4626 25.9937 20.3814Z" fill="white"/>
</svg>
