<svg width="42" height="42" viewBox="0 0 42 42" fill="none" xmlns="http://www.w3.org/2000/svg">
<path d="M31.1744 13.6531H37.4063C37.9282 13.6525 38.4287 13.4449 38.7977 13.0758C39.1668 12.7067 39.3744 12.2063 39.375 11.6843V6.74451C39.3744 6.22254 39.1668 5.72211 38.7977 5.35302C38.4287 4.98393 37.9282 4.77633 37.4063 4.77576H31.1744C30.6525 4.77633 30.152 4.98393 29.783 5.35302C29.4139 5.72211 29.2063 6.22254 29.2057 6.74451V8.5575H24.9375C24.4155 8.55807 23.9151 8.76568 23.546 9.13477C23.1769 9.50385 22.9693 10.0043 22.9688 10.5263V21.1288H17.4316V16.1486C17.431 15.6999 17.3387 15.256 17.1602 14.8442C16.9817 14.4325 16.7209 14.0616 16.3938 13.7543L13.0026 10.5763C12.3952 10.0054 11.5926 9.68813 10.7589 9.68932H4.60562C4.05521 9.71697 3.53807 9.96118 3.16702 10.3687C2.79597 10.7761 2.60113 11.3138 2.62501 11.8644V29.5934C2.60113 30.144 2.79597 30.6817 3.16702 31.0892C3.53806 31.4967 4.0552 31.7409 4.60562 31.7685H15.451C16.0015 31.7409 16.5186 31.4967 16.8896 31.0892C17.2607 30.6817 17.4555 30.144 17.4316 29.5934V22.4413C17.9854 22.4439 22.5645 22.4394 22.9687 22.4413V32.2876C22.9693 32.8096 23.1769 33.31 23.546 33.6791C23.9151 34.0482 24.4155 34.2558 24.9375 34.2564H29.2057V35.2555C29.2063 35.7775 29.4139 36.2779 29.7829 36.647C30.152 37.0161 30.6525 37.2237 31.1744 37.2242H37.4063C37.9282 37.2237 38.4287 37.0161 38.7977 36.647C39.1668 36.2779 39.3744 35.7775 39.375 35.2555V30.3157C39.3744 29.7937 39.1668 29.2933 38.7977 28.9242C38.4287 28.5551 37.9282 28.3475 37.4063 28.3469H31.1744C30.6525 28.3475 30.152 28.5551 29.783 28.9242C29.4139 29.2933 29.2063 29.7937 29.2057 30.3157V32.9439H24.9375C24.7635 32.9437 24.5967 32.8745 24.4737 32.7515C24.3506 32.6284 24.2814 32.4616 24.2813 32.2876V22.4413H29.2057V23.4699C29.2063 23.9919 29.4139 24.4923 29.783 24.8614C30.152 25.2305 30.6525 25.4381 31.1744 25.4387H37.4063C37.9282 25.4381 38.4287 25.2305 38.7977 24.8614C39.1668 24.4923 39.3744 23.9919 39.375 23.4699V18.5301C39.3744 18.0081 39.1668 17.5077 38.7977 17.1386C38.4287 16.7695 37.9282 16.5619 37.4063 16.5613H31.1744C30.6525 16.5619 30.152 16.7695 29.783 17.1386C29.4139 17.5077 29.2063 18.0081 29.2057 18.5301V21.1288H24.2813V10.5263C24.2814 10.3523 24.3506 10.1854 24.4737 10.0624C24.5967 9.93937 24.7635 9.87018 24.9375 9.87H29.2057V11.6843C29.2063 12.2063 29.4139 12.7067 29.783 13.0758C30.152 13.4449 30.6525 13.6525 31.1744 13.6531ZM15.4965 14.7118C15.729 14.9343 15.9032 15.2105 16.0039 15.5161H12.0714C11.8974 15.5159 11.7306 15.4467 11.6076 15.3237C11.4845 15.2007 11.4153 15.0338 11.4152 14.8599V11.1195C11.6713 11.2084 11.9062 11.3494 12.1051 11.5337L15.4965 14.7118ZM15.451 30.456H4.60562C4.40416 30.4269 4.22189 30.3207 4.09725 30.1597C3.97261 29.9988 3.91534 29.7958 3.93751 29.5934V11.8644C3.91534 11.6621 3.97262 11.459 4.09726 11.2981C4.2219 11.1372 4.40416 11.0309 4.60562 11.0018H10.1027V14.8598C10.1032 15.3818 10.3108 15.8822 10.6799 16.2513C11.049 16.6204 11.5494 16.828 12.0714 16.8286H16.1192V29.5934C16.1413 29.7958 16.0841 29.9988 15.9594 30.1597C15.8348 30.3207 15.6525 30.4269 15.451 30.456ZM30.5182 30.3157C30.5184 30.1417 30.5876 29.9749 30.7106 29.8518C30.8336 29.7288 31.0005 29.6596 31.1744 29.6594H37.4063C37.5803 29.6596 37.7471 29.7288 37.8701 29.8518C37.9931 29.9749 38.0623 30.1417 38.0625 30.3157V35.2555C38.0623 35.4295 37.9931 35.5963 37.8701 35.7194C37.7471 35.8424 37.5803 35.9116 37.4063 35.9118H31.1744C31.0005 35.9116 30.8336 35.8424 30.7106 35.7194C30.5876 35.5963 30.5184 35.4295 30.5182 35.2555V30.3157ZM30.5182 18.5301C30.5184 18.3561 30.5876 18.1893 30.7106 18.0663C30.8336 17.9432 31.0005 17.874 31.1744 17.8739H37.4063C37.5803 17.874 37.7471 17.9432 37.8701 18.0663C37.9931 18.1893 38.0623 18.3561 38.0625 18.5301V23.4699C38.0623 23.6439 37.9931 23.8107 37.8701 23.9338C37.7471 24.0568 37.5803 24.126 37.4063 24.1262H31.1744C31.0005 24.126 30.8336 24.0568 30.7106 23.9338C30.5876 23.8107 30.5184 23.6439 30.5182 23.4699V18.5301ZM30.5182 6.74451C30.5184 6.57051 30.5876 6.40369 30.7106 6.28066C30.8336 6.15763 31.0005 6.08843 31.1744 6.08826H37.4063C37.5803 6.08843 37.7471 6.15763 37.8701 6.28066C37.9931 6.40369 38.0623 6.57051 38.0625 6.74451V11.6843C38.0623 11.8583 37.9931 12.0251 37.8701 12.1482C37.7471 12.2712 37.5803 12.3404 37.4063 12.3406H31.1744C31.0005 12.3404 30.8336 12.2712 30.7106 12.1482C30.5876 12.0251 30.5184 11.8583 30.5182 11.6843V6.74451Z" fill="white"/>
</svg>
