<svg width="40" height="40" viewBox="0 0 40 40" fill="none" xmlns="http://www.w3.org/2000/svg">
<path d="M38.4375 10.2641V9.0625C38.4375 7.33938 37.0356 5.9375 35.3125 5.9375H12.7142L11.6088 4.64781C11.4604 4.47469 11.2437 4.375 11.0156 4.375H3.125C1.40188 4.375 0 5.77688 0 7.5V32.5C0 34.2231 1.40188 35.625 3.125 35.625H36.875C38.5981 35.625 40 34.2231 40 32.5V12.9688C40 11.8146 39.3706 10.8054 38.4375 10.2641ZM14.0535 7.5H35.3125C36.1741 7.5 36.875 8.20094 36.875 9.0625V9.84375H16.0624L14.0535 7.5ZM38.4375 32.5C38.4375 33.3616 37.7366 34.0625 36.875 34.0625H3.125C2.26344 34.0625 1.5625 33.3616 1.5625 32.5V7.5C1.5625 6.63844 2.26344 5.9375 3.125 5.9375H10.6563L11.7617 7.22711L15.1099 11.1334C15.2584 11.3065 15.475 11.4062 15.7031 11.4062H36.875C37.7366 11.4062 38.4375 12.1071 38.4375 12.9687V32.5Z" fill="white"/>
<path d="M13.3287 21.9307V29.1875C13.3287 30.1179 14.0858 30.875 15.0162 30.875H24.9837C25.9141 30.875 26.6712 30.1179 26.6712 29.1875V21.9312C27.3743 21.5161 27.8525 20.7584 27.8525 19.8837V18.545C27.8525 18.4735 27.839 18.4021 27.812 18.3357L26.9693 16.2348C26.7179 15.598 26.0896 15.17 25.4056 15.17H14.5943C13.9103 15.17 13.282 15.598 13.0317 16.232L12.188 18.3357C12.1615 18.4021 12.1475 18.4735 12.1475 18.545V19.8837C12.1475 20.7579 12.6256 21.5155 13.3287 21.9307ZM21.8421 29.75H18.1578V25.97C18.1578 25.66 18.4103 25.4075 18.7203 25.4075H21.2796C21.5896 25.4075 21.8421 25.66 21.8421 25.97V29.75ZM25.5462 29.1875C25.5462 29.4974 25.2936 29.75 24.9837 29.75H22.9671V25.97C22.9671 25.0396 22.21 24.2825 21.2796 24.2825H18.7203C17.7899 24.2825 17.0328 25.0396 17.0328 25.97V29.75H15.0162C14.7063 29.75 14.4537 29.4974 14.4537 29.1875V22.2609C14.4807 22.262 14.5055 22.2687 14.5325 22.2687C15.2626 22.2687 15.9168 21.9391 16.355 21.4205C16.7926 21.9385 17.4473 22.2687 18.1775 22.2687C18.9076 22.2687 19.5623 21.9391 20 21.4205C20.4376 21.9385 21.0923 22.2687 21.8225 22.2687C22.5526 22.2687 23.2068 21.9391 23.645 21.4205C24.0826 21.9385 24.7373 22.2687 25.4675 22.2687C25.4945 22.2687 25.5192 22.2614 25.5462 22.2609V29.1875ZM16.9175 19.8837V19.1075H19.4375V19.8837C19.4375 20.5784 18.8721 21.1437 18.1775 21.1437C17.4828 21.1437 16.9175 20.5784 16.9175 19.8837ZM20.5625 19.8837V19.1075H23.0825V19.8837C23.0825 20.5784 22.5171 21.1437 21.8225 21.1437C21.1278 21.1437 20.5625 20.5784 20.5625 19.8837ZM26.7275 19.1075V19.8837C26.7275 20.5784 26.1621 21.1437 25.4675 21.1437C24.7728 21.1437 24.2075 20.5784 24.2075 19.8837V19.1075H26.7275ZM14.0768 16.6477C14.1601 16.4367 14.3682 16.295 14.5943 16.295H25.4056C25.6317 16.295 25.8398 16.4367 25.9242 16.6505L26.4586 17.9825H13.5413L14.0768 16.6477ZM13.2725 19.1075H15.7925V19.8837C15.7925 20.5784 15.2271 21.1437 14.5325 21.1437C13.8378 21.1437 13.2725 20.5784 13.2725 19.8837V19.1075Z" fill="white"/>
</svg>
