<svg width="42" height="42" viewBox="0 0 42 42" fill="none" xmlns="http://www.w3.org/2000/svg">
<path d="M21.5416 9.18268L39.0001 19.0696L33.811 22.1857L39.0001 25.1238L33.811 28.2399L39.0001 31.1781L21.5416 41.6613L3.48389 31.1781L8.85065 28.2399L3.48389 25.1238L8.85065 22.1857L3.48389 19.0696L21.5416 9.18268ZM5.75786 31.207L21.5319 40.3629L36.7827 31.2054L32.7112 28.8988L21.5416 35.6054L9.97955 28.8939L5.75786 31.2054V31.207ZM5.75786 25.1527L21.5319 34.3087L36.7827 25.1527L32.7112 22.8477L21.5416 29.5544L9.97955 22.8429L5.75786 25.1543V25.1527ZM21.5319 28.2544L36.7827 19.0984L21.5319 10.4618L5.75786 19.0984L21.5319 28.2544Z" fill="white"/>
<mask id="mask0_5299_64" style="mask-type:luminance" maskUnits="userSpaceOnUse" x="14" y="0" width="15" height="21">
<path d="M14.3121 0.794189H28.8218V20.1523H14.3121V0.794189Z" fill="white"/>
</mask>
<g mask="url(#mask0_5299_64)">
<path d="M14.3121 8.01103C14.3121 13.6068 19.331 18.4688 21.02 19.9467C21.3328 20.2205 21.801 20.2205 22.1139 19.9467C23.8029 18.4699 28.8218 13.6068 28.8218 8.01103C28.8218 4.0249 25.5741 0.794189 21.5669 0.794189C17.5598 0.794189 14.3121 4.0249 14.3121 8.01103Z" fill="white"/>
<path d="M21.5671 13.3421C18.6073 13.3421 16.2079 10.9553 16.2079 8.01099C16.2079 5.0667 18.6073 2.67987 21.5671 2.67987C24.5269 2.67987 26.9263 5.0667 26.9263 8.01099C26.9263 10.9553 24.5269 13.3421 21.5671 13.3421Z" fill="#164FB1"/>
</g>
</svg>
