<svg width="42" height="42" viewBox="0 0 42 42" fill="none" xmlns="http://www.w3.org/2000/svg">
<path d="M40.3594 9.78429V8.4C40.3594 6.41496 38.8874 4.8 37.0781 4.8H13.3499L12.1893 3.31428C12.0334 3.11484 11.8059 3 11.5664 3H3.28125C1.47197 3 0 4.61496 0 6.6V35.4C0 37.385 1.47197 39 3.28125 39H38.7188C40.528 39 42 37.385 42 35.4V12.9C42 11.5704 41.3392 10.4078 40.3594 9.78429ZM14.7562 6.6H37.0781C37.9828 6.6 38.7188 7.40748 38.7188 8.4V9.3H16.8655L14.7562 6.6ZM40.3594 35.4C40.3594 36.3925 39.6234 37.2 38.7188 37.2H3.28125C2.37661 37.2 1.64062 36.3925 1.64062 35.4V6.6C1.64062 5.60748 2.37661 4.8 3.28125 4.8H11.1891L12.3498 6.28563L15.8654 10.7856C16.0213 10.9851 16.2487 11.0999 16.4883 11.0999H38.7188C39.6234 11.0999 40.3594 11.9074 40.3594 12.8999V35.4Z" fill="white"/>
<path d="M12.8461 22.6931V31.5626C12.8461 32.6998 13.7715 33.6252 14.9086 33.6252H27.0912C28.2284 33.6252 29.1538 32.6998 29.1538 31.5626V22.6938C30.0131 22.1864 30.5975 21.2604 30.5975 20.1913V18.555C30.5975 18.4677 30.581 18.3804 30.548 18.2993L29.5181 15.7314C29.2108 14.9532 28.4429 14.43 27.6069 14.43H14.393C13.557 14.43 12.789 14.9532 12.4831 15.728L11.4518 18.2993C11.4195 18.3804 11.4023 18.4677 11.4023 18.555V20.1913C11.4023 21.2597 11.9867 22.1857 12.8461 22.6931ZM23.2515 32.2502H18.7483V27.6301C18.7483 27.2513 19.057 26.9426 19.4359 26.9426H22.564C22.9428 26.9426 23.2515 27.2513 23.2515 27.6301V32.2502ZM27.7787 31.5626C27.7787 31.9415 27.47 32.2502 27.0912 32.2502H24.6265V27.6301C24.6265 26.493 23.7011 25.5676 22.564 25.5676H19.4359C18.2987 25.5676 17.3733 26.493 17.3733 27.6301V32.2502H14.9086C14.5298 32.2502 14.2211 31.9415 14.2211 31.5626V23.0967C14.2541 23.0981 14.2844 23.1063 14.3174 23.1063C15.2098 23.1063 16.0093 22.7034 16.5449 22.0696C17.0798 22.7028 17.88 23.1063 18.7724 23.1063C19.6648 23.1063 20.465 22.7034 20.9999 22.0696C21.5348 22.7028 22.3351 23.1063 23.2274 23.1063C24.1198 23.1063 24.9194 22.7034 25.455 22.0696C25.9898 22.7028 26.7901 23.1063 27.6825 23.1063C27.7155 23.1063 27.7457 23.0974 27.7787 23.0967V31.5626ZM17.2324 20.1913V19.2425H20.3124V20.1913C20.3124 21.0404 19.6215 21.7313 18.7724 21.7313C17.9233 21.7313 17.2324 21.0404 17.2324 20.1913ZM21.6874 20.1913V19.2425H24.7675V20.1913C24.7675 21.0404 24.0765 21.7313 23.2274 21.7313C22.3784 21.7313 21.6874 21.0404 21.6874 20.1913ZM29.2225 19.2425V20.1913C29.2225 21.0404 28.5316 21.7313 27.6825 21.7313C26.8334 21.7313 26.1425 21.0404 26.1425 20.1913V19.2425H29.2225ZM13.7605 16.2361C13.8622 15.9783 14.1166 15.805 14.393 15.805H27.6069C27.8832 15.805 28.1376 15.9783 28.2407 16.2395L28.8939 17.8675H13.106L13.7605 16.2361ZM12.7774 19.2425H15.8574V20.1913C15.8574 21.0404 15.1664 21.7313 14.3174 21.7313C13.4683 21.7313 12.7774 21.0404 12.7774 20.1913V19.2425Z" fill="white"/>
</svg>
